<svg xmlns="http://www.w3.org/2000/svg" viewBox="0 0 279.199 279.199">
  <defs/>
  <path fill="#222220" d="M275.639 64.92c-.01-.077-.023-.153-.035-.229a7.427 7.427 0 00-.18-.833c-.011-.042-.02-.083-.032-.125a7.443 7.443 0 00-.341-.916c-.022-.05-.048-.098-.071-.148a7.494 7.494 0 00-.404-.743c-.029-.048-.057-.097-.087-.144a7.402 7.402 0 00-.567-.761c-.04-.047-.083-.091-.125-.138a7.704 7.704 0 00-.57-.573c-.051-.046-.1-.094-.152-.138a7.57 7.57 0 00-.767-.577c-.042-.027-.085-.051-.127-.077a7.515 7.515 0 00-.794-.433c-.028-.013-.053-.031-.081-.044L142.699.671a7.492 7.492 0 00-6.199 0L47.638 41.004a7.5 7.5 0 00-3.729 9.929c1.711 3.772 6.158 5.446 9.929 3.729L139.6 15.736l110.217 50.025L139.6 114.198 14.011 59.006l-.027-.01a7.825 7.825 0 00-.565-.215c-.048-.017-.096-.037-.144-.053-.157-.05-.319-.089-.48-.129-.085-.021-.17-.047-.256-.065-.103-.022-.209-.034-.314-.052-.146-.024-.292-.051-.438-.067-.068-.007-.139-.008-.208-.013a7.732 7.732 0 00-.547-.027l-.038-.002c-.071 0-.14.009-.21.011a7.063 7.063 0 00-.484.024c-.125.011-.247.031-.37.049-.113.017-.227.03-.338.052-.153.029-.302.067-.452.104-.081.021-.162.039-.242.063-.162.047-.32.103-.477.16-.068.024-.136.047-.203.074a7.438 7.438 0 00-.456.203c-.069.034-.14.065-.208.101-.136.07-.269.147-.4.226-.081.048-.162.095-.24.146a7.534 7.534 0 00-.331.231c-.091.066-.182.132-.27.202a7.405 7.405 0 00-.269.23c-.096.084-.191.167-.282.256-.079.077-.154.159-.229.239-.09.096-.18.191-.266.292-.076.09-.147.186-.22.28-.074.096-.148.19-.218.291-.083.12-.158.245-.234.37-.049.081-.101.16-.148.243-.09.162-.17.329-.249.497-.022.048-.049.091-.07.14l-.01.027c-.08.184-.149.373-.214.563-.017.049-.038.097-.054.146-.049.155-.088.315-.127.474-.022.088-.049.175-.068.264-.021.098-.032.198-.049.297-.026.152-.054.304-.07.457-.006.06-.006.12-.011.18a7.43 7.43 0 00-.029.577l-.001.033v146.427a7.5 7.5 0 004.355 6.809l128.606 59.398s.018.006.026.011c.055.024.111.042.166.065.25.107.501.201.756.279.089.027.179.05.27.074.243.065.486.117.73.157.075.012.15.027.226.037.322.042.645.07.966.07.032 0 .063-.006.095-.007.283-.003.566-.024.848-.06.104-.013.206-.033.308-.05a7.37 7.37 0 001.658-.481c.065-.027.131-.049.195-.078.015-.007.031-.011.045-.018l128.606-59.398a7.5 7.5 0 004.355-6.809V65.872c0-.323-.027-.64-.067-.952zM147.1 259.972V159.266c0-4.143-3.357-7.5-7.5-7.5s-7.5 3.357-7.5 7.5v100.707l-113.606-52.47V77.36l118.089 51.896a7.491 7.491 0 006.036 0L260.706 77.36v130.142L147.1 259.972z"/>
</svg>